<?xml version="1.0" encoding="utf-8"?>
<!-- Generator: Adobe Illustrator 18.0.0, SVG Export Plug-In . SVG Version: 6.00 Build 0)  -->
<!DOCTYPE svg PUBLIC "-//W3C//DTD SVG 1.1//EN" "http://www.w3.org/Graphics/SVG/1.1/DTD/svg11.dtd">
<svg version="1.1" id="Layer_1" xmlns="http://www.w3.org/2000/svg" xmlns:xlink="http://www.w3.org/1999/xlink" x="0px" y="0px"
	 viewBox="0 0 120 120" enable-background="new 0 0 120 120" xml:space="preserve">
<g opacity="0.72">
	<path fill="none" stroke="#F15A57" stroke-width="3" stroke-miterlimit="10" d="M60.7,60.3c0,0-23.3-30.8-35.8-34.4
		c-9.3-2.6-20.2,1.6-22.3,10.4c-2.6,10.8,5.6,21,14.1,24C28.2,64.3,60.7,60.3,60.7,60.3z"/>
	<path fill="none" stroke="#F15A57" stroke-width="3" stroke-miterlimit="10" d="M59.3,60.3c0,0,23.3-30.8,35.8-34.4
		c9.3-2.6,20.2,1.6,22.3,10.4c2.6,10.8-5.6,21-14.1,24C91.8,64.3,59.3,60.3,59.3,60.3z"/>
	<line fill="none" stroke="#F15A57" stroke-width="3" stroke-miterlimit="10" x1="61.4" y1="57.5" x2="27.6" y2="94.8"/>
	<line fill="none" stroke="#F15A57" stroke-width="3" stroke-miterlimit="10" x1="58.5" y1="57.4" x2="92.3" y2="94.8"/>
</g>
</svg>
