<?xml version="1.0" encoding="utf-8"?>
<!-- Generator: Adobe Illustrator 18.1.1, SVG Export Plug-In . SVG Version: 6.00 Build 0)  -->
<!DOCTYPE svg PUBLIC "-//W3C//DTD SVG 1.1//EN" "http://www.w3.org/Graphics/SVG/1.1/DTD/svg11.dtd">
<svg version="1.1" id="Layer_1" xmlns="http://www.w3.org/2000/svg" xmlns:xlink="http://www.w3.org/1999/xlink" x="0px" y="0px"
	 viewBox="140 0 280 280" enable-background="new 140 0 280 280" xml:space="preserve">
<path display="none" fill="none" stroke="#23B4BA" stroke-width="6" stroke-miterlimit="10" d="M280,265c-69,0-125-56-125-125"/>
<circle fill="none" stroke="#EEEEEE" stroke-width="6" stroke-miterlimit="10" cx="280" cy="140" r="125"/>
<path display="none" fill="none" stroke="#23B4BA" stroke-width="6" stroke-miterlimit="10" d="M280,15c69,0,125,56,125,125"/>
<path fill="#999999" d="M338.1,192.7l-29.3-29.3c7.4-8.6,11.9-19.9,11.9-32.1c0-27.2-22.2-49.4-49.4-49.4c-13.2,0-25.6,5.1-35,14.5
	c-9.3,9.3-14.5,21.8-14.5,35c0,27.2,22.2,49.4,49.4,49.4c12.3,0,23.5-4.5,32.1-11.9l29.3,29.3L338.1,192.7z M271.3,173.1
	c-23.1,0-41.8-18.8-41.8-41.8c0-11.2,4.3-21.7,12.2-29.6c7.9-7.9,18.4-12.2,29.6-12.2c23.1,0,41.8,18.8,41.8,41.8
	C313.1,154.4,294.4,173.1,271.3,173.1z"/>
<line display="none" fill="none" stroke="#DDDDDD" stroke-miterlimit="10" x1="280" y1="-5" x2="280" y2="297"/>
<line display="none" fill="none" stroke="#DDDDDD" stroke-miterlimit="10" x1="431" y1="140" x2="129" y2="140"/>
</svg>
