<?xml version="1.0" encoding="utf-8"?>
<!-- Generator: Adobe Illustrator 18.1.1, SVG Export Plug-In . SVG Version: 6.00 Build 0)  -->
<!DOCTYPE svg PUBLIC "-//W3C//DTD SVG 1.1//EN" "http://www.w3.org/Graphics/SVG/1.1/DTD/svg11.dtd">
<svg version="1.1" id="Layer_1" xmlns="http://www.w3.org/2000/svg" xmlns:xlink="http://www.w3.org/1999/xlink" x="0px" y="0px"
	 viewBox="0 0 612 612" enable-background="new 0 0 612 612" xml:space="preserve">
<g>
	<g>
		<rect x="312.6" y="48" fill="#6CA39E" width="7.2" height="145"/>
	</g>
	<g>
		<g>
			<path fill="#86BCB8" d="M428.4,125.9c-0.5-2.3-2.6-4-5.1-4H210.8c-2.3,0-4.2,1.4-4.9,3.4c-1.7,1.1-2.9,3-2.9,5.1c0,3.3,2.7,6,6,6
				c2.8,0,5.1-1.9,5.8-4.5h0.4c0.7,2.6,3,4.5,5.8,4.5s5.1-1.9,5.8-4.5h0.4c0.7,2.6,3,4.5,5.8,4.5s5.1-1.9,5.8-4.5h0.3
				c0.7,2.6,3,4.5,5.8,4.5c2.8,0,5.1-1.9,5.8-4.5h0.4c0.7,2.6,3,4.5,5.8,4.5s5.1-1.9,5.8-4.5h0.4c0.7,2.6,3,4.5,5.8,4.5
				s5.1-1.9,5.8-4.5h0.3c0.7,2.6,3,4.5,5.8,4.5s5.1-1.9,5.8-4.5h0.4c0.7,2.6,3,4.5,5.8,4.5s5.1-1.9,5.8-4.5h0.4
				c0.7,2.6,3,4.5,5.8,4.5s5.1-1.9,5.8-4.5h0.3c0.7,2.6,3,4.5,5.8,4.5s5.1-1.9,5.8-4.5h0.4c0.7,2.6,3,4.5,5.8,4.5s5.1-1.9,5.8-4.5
				h0.4c0.7,2.6,3,4.5,5.8,4.5s5.1-1.9,5.8-4.5h0.3c0.7,2.6,3,4.5,5.8,4.5s5.1-1.9,5.8-4.5h0.4c0.7,2.6,3,4.5,5.8,4.5
				s5.1-1.9,5.8-4.5h0.4c0.7,2.6,3,4.5,5.8,4.5s5.1-1.9,5.8-4.5h0.3c0.7,2.6,3,4.5,5.8,4.5s5.1-1.9,5.8-4.5h0.4
				c0.7,2.6,3,4.5,5.8,4.5s5.1-1.9,5.8-4.5h0.4c0.7,2.6,3,4.5,5.8,4.5s5.1-1.9,5.8-4.5h0.3c0.7,2.6,3,4.5,5.8,4.5c3.3,0,6-2.7,6-6
				C430.4,128.6,429.6,127,428.4,125.9z"/>
			<path fill="#86BCB8" d="M256.4,56.8c2.5,0,4.7-1.6,5.6-3.8h0.7c0.9,2.2,3,3.8,5.6,3.8s4.7-1.6,5.6-3.8h0.8c0.9,2.2,3,3.8,5.6,3.8
				s4.7-1.6,5.6-3.8h0.8c0.9,2.2,3,3.8,5.6,3.8s4.7-1.6,5.6-3.8h0.7c0.9,2.2,3,3.8,5.6,3.8s4.7-1.6,5.6-3.8h0.8
				c0.9,2.2,3,3.8,5.6,3.8s4.7-1.6,5.6-3.8h0.8c0.9,2.2,3,3.8,5.6,3.8s4.7-1.6,5.6-3.8h0.7c0.9,2.2,3,3.8,5.6,3.8s4.7-1.6,5.6-3.8
				h0.8c0.9,2.2,3,3.8,5.6,3.8s4.7-1.6,5.6-3.8h0.8c0.9,2.2,3,3.8,5.6,3.8s4.7-1.6,5.6-3.8h0.7c0.9,2.2,3,3.8,5.6,3.8
				c3.3,0,6-2.7,6-6c0-1.7-0.7-3.3-1.9-4.4c-0.7-2-2.6-3.4-5-3.4H257.2c-2.4,0-4.4,1.5-5.1,3.6c-1.1,1.1-1.7,2.6-1.7,4.2
				C250.4,54.1,253.1,56.8,256.4,56.8z"/>
		</g>
		<g>
			<path fill="#86BCB8" d="M347.1,191.4h-61.8c-3,0-5.4,2.4-5.4,5.4v0h72.6v0C352.5,193.9,350.1,191.4,347.1,191.4z"/>
		</g>
	</g>
	<g>
		<g>
			<path fill="#F77F7F" d="M358.3,101.9H324c-2.5,0-4.6-2.1-4.6-4.6s2.1-4.6,4.6-4.6h34.3c2.5,0,4.6,2.1,4.6,4.6
				S360.8,101.9,358.3,101.9z"/>
		</g>
	</g>
	<g>
		<g>
			<path fill="#F77F7F" d="M353.6,94.2h-25.7c-2.5,0-4.6-2.1-4.6-4.6s2.1-4.6,4.6-4.6h25.7c2.5,0,4.6,2.1,4.6,4.6
				S356.1,94.2,353.6,94.2z"/>
		</g>
	</g>
	<g>
		<g>
			<path fill="#F77F7F" d="M348.8,86.9h-15.7c-2.5,0-4.6-2.1-4.6-4.6s2.1-4.6,4.6-4.6h15.7c2.5,0,4.6,2.1,4.6,4.6
				S351.3,86.9,348.8,86.9z"/>
		</g>
	</g>
	<g>
		<path fill="none" d="M452.7,148.7"/>
	</g>
	<g>
		<g>
			<path fill="#EA346C" d="M313,34.5c0,4.7-3.6,8.5-8,8.5h-26.1c-4.4,0-8-3.8-8-8.5V30c0-4.7,3.6-8.5,8-8.5H305c4.4,0,8,3.8,8,8.5
				V34.5z"/>
		</g>
		<g>
			<rect x="271" y="30" fill="#CE205F" width="42" height="5.4"/>
		</g>
		<g>
			<path fill="#FCCC92" d="M313,34.7h-42c-1.1,0-2-0.9-2-2c0-1.1,0.9-2,2-2h42c1.1,0,2,0.9,2,2C315,33.8,314.1,34.7,313,34.7z"/>
		</g>
	</g>
	<g>
		<g>
			<path fill="#F95555" d="M336.5,13c0,4.7-3.6,8.5-8,8.5h-26.1c-4.4,0-8-3.8-8-8.5V8.5c0-4.7,3.6-8.5,8-8.5h26.1c4.4,0,8,3.8,8,8.5
				V13z"/>
		</g>
		<g>
			<rect x="294.5" y="8.5" fill="#DD3131" width="42" height="5.4"/>
		</g>
		<g>
			<path fill="#FF8871" d="M336.5,13.2h-42c-1.1,0-2-0.9-2-2s0.9-2,2-2h42c1.1,0,2,0.9,2,2S337.6,13.2,336.5,13.2z"/>
		</g>
	</g>
	<g>
		<path fill="#FCCC92" d="M315.7,117.2c0,2.8-1.9,5.1-4.2,5.1h-85.2c-2.3,0-4.2-2.3-4.2-5.1V79.3c0-2.8,1.9-5.1,4.2-5.1h85.2
			c2.3,0,4.2,2.3,4.2,5.1V117.2z"/>
	</g>
	<g>
		<g>
			<rect x="222.2" y="95.5" fill="#593419" width="93.6" height="10.4"/>
		</g>
		<g>
			<rect x="222.2" y="91.9" fill="#FFFAE3" width="93.6" height="3.6"/>
		</g>
	</g>
	<g>
		<path fill="#E89400" d="M311.4,73h-85.2c-2.3,0-4.2,2.3-4.2,5.1V104c0,3.7,3,6.7,6.7,6.7s6.7-3,6.7-6.7V86.7V86v0.8
			c0-3.7,3-6.7,6.7-6.7s6.7,3,6.7,6.7l0.1,0.9c0,3.7,3,6.7,6.7,6.7s6.7-3,6.7-6.7l-0.1-1.7c0-3.7,3-6.7,6.7-6.7s6.7,3,6.7,6.7v6.5
			c0,3.7,3,6.7,6.7,6.7s6.7-3,6.7-6.7V86c0-3.7,3-6.7,6.7-6.7s6.7,3,6.7,6.7v5.9c0,3.7,3,6.7,6.7,6.7s6.7-3,6.7-6.7V78.1
			C315.6,75.3,313.7,73,311.4,73z"/>
	</g>
	<g>
		<g>
			<g>
				<path fill="#F95555" d="M389.5,66.6c-2.9,0-5.3,2.4-5.3,5.3c0,2.9,2.4,5.3,5.3,5.3c2.9,0,5.3-2.4,5.3-5.3
					C394.8,69,392.4,66.6,389.5,66.6z"/>
			</g>
			<g>
				<g>
					<path fill="#79B1F2" d="M406.7,101.9h-34.3c-2.5,0-4.6-2.1-4.6-4.6s2.1-4.6,4.6-4.6h34.3c2.5,0,4.6,2.1,4.6,4.6
						S409.2,101.9,406.7,101.9z"/>
				</g>
			</g>
			<g>
				<g>
					<path fill="#79B1F2" d="M402,94.2h-25.7c-2.5,0-4.6-2.1-4.6-4.6s2.1-4.6,4.6-4.6H402c2.5,0,4.6,2.1,4.6,4.6
						S404.5,94.2,402,94.2z"/>
				</g>
			</g>
			<g>
				<g>
					<path fill="#79B1F2" d="M397.2,86.9h-15.7c-2.5,0-4.6-2.1-4.6-4.6s2.1-4.6,4.6-4.6h15.7c2.5,0,4.6,2.1,4.6,4.6
						S399.7,86.9,397.2,86.9z"/>
				</g>
			</g>
		</g>
		<g>
			<polygon fill="#593419" points="375.1,121.8 404,121.8 412.5,97.8 366.6,97.8 			"/>
		</g>
	</g>
	<g>
		<polygon fill="#593419" points="326.7,121.9 355.6,121.9 364.1,97.8 318.2,97.8 		"/>
	</g>
	<g>
		<circle fill="#EA346C" cx="243.8" cy="69.3" r="6.5"/>
	</g>
	<g>
		<path fill="#129400" d="M237.4,55.5c0.3,1.6,2.6,6.7,3.8,8.1c-0.7-1.9-0.2-7-0.5-8.6s-1.2-2.8-2.1-2.7
			C237.6,52.4,237.1,53.8,237.4,55.5z"/>
	</g>
	<g>
		<g>
			<path fill="#316ABC" d="M102.8,91.3l-3.9-19.9c0,0-0.6-2.8-2.8-4.6c-1.9-1.5-15.6-7-23.8-10.2l1.4-3.7
				c3.6,1.4,21.9,8.5,24.8,10.8c3.3,2.7,4.2,6.7,4.2,6.9l4,19.9L102.8,91.3z"/>
		</g>
		<g>
			<path fill="#FFA6C6" d="M141,102.1h-38.5c-2.9,0-5.2-2.3-5.2-5.2c0-2.9,2.3-5.2,5.2-5.2H141c2.9,0,5.2,2.3,5.2,5.2
				C146.1,99.8,143.8,102.1,141,102.1z"/>
		</g>
		<g>
			<path fill="#FFA6C6" d="M136.1,95.2h-28.9c-2.9,0-5.2-2.3-5.2-5.2c0-2.9,2.3-5.2,5.2-5.2h28.9c2.9,0,5.2,2.3,5.2,5.2
				C141.3,92.9,139,95.2,136.1,95.2z"/>
		</g>
		<g>
			<path fill="#FFA6C6" d="M130.5,90h-17.6c-2.9,0-5.2-2.3-5.2-5.2c0-2.9,2.3-5.2,5.2-5.2h17.6c2.9,0,5.2,2.3,5.2,5.2
				S133.4,90,130.5,90z"/>
		</g>
		<g>
			<circle fill="#FC94AF" cx="122.1" cy="79.7" r="5.9"/>
		</g>
		<g>
			<path fill="#E81F4F" d="M128.9,75.2c0,4.7-3,4.8-6.8,4.8c-3.7,0-6.8-0.1-6.8-4.8c0-4.7,3-10.6,6.8-10.6
				C125.9,64.7,128.9,70.5,128.9,75.2z"/>
		</g>
		<g>
			<path fill="#F9627F" stroke="#3BB1EA" stroke-width="3.0631" stroke-miterlimit="10" d="M99.8,115.1"/>
		</g>
		<g>
			<path fill="#F9627F" stroke="#3BB1EA" stroke-width="3.0631" stroke-miterlimit="10" d="M112.5,101.5"/>
		</g>
		<g>
			<path fill="#86BCB8" d="M142,196.5l4.2-94.3c0-0.4-0.3-0.7-0.7-0.7h-33H97.9c-0.4,0-0.7,0.3-0.7,0.7l4.2,94.3"/>
		</g>
		<g>
			<polygon fill="#FFA6C6" points="100.3,126.4 143.1,126.4 144.1,103.2 99.3,103.2 99.8,114.8 			"/>
		</g>
		<g>
			<polygon fill="#FFFFF6" points="100.8,137.6 142.6,137.6 143.1,126.4 100.4,126.4 			"/>
		</g>
		<g>
			<polygon fill="#EA346C" points="102.9,183.3 140.6,183.3 142.6,137.6 100.8,137.6 			"/>
		</g>
		<g>
			<path fill="#72086A" d="M102.9,182l0.2,4.9c0.1,3.4,2.9,6.1,6.3,6.1H134c3.4,0,6.2-2.7,6.3-6.1l0.2-4.9H102.9z"/>
		</g>
		<g opacity="0.5">
			<path fill="#FFFFFF" d="M121.4,196.4l-1.2-93.6c0-0.4-0.1-0.7-0.3-0.7h-11.8H103c-0.1,0-0.2,0.3-0.2,0.7l4.1,93.6"/>
		</g>
	</g>
	<g>
		<g>
			<path fill="#FFE67B" d="M481.3,86.4v63c0,7.6,3.4,14.3,8.5,18.3c3.3,2.5,7.2,4.1,11.5,4.1s8.2-1.5,11.5-4.1
				c5.2-4,8.5-10.7,8.5-18.3v-63L481.3,86.4z"/>
		</g>
		<g>
			<g>
				<rect x="481.3" y="86.4" fill="#86BCB8" width="40.1" height="23.4"/>
			</g>
		</g>
		<g>
			<path fill="#86BCB8" d="M501.3,173.3c-4.3,0-8.6-1.5-12.4-4.4c-5.7-4.5-9.1-11.8-9.1-19.5V84.9h43.1v64.5
				c0,7.8-3.4,15.1-9.1,19.5C510.1,171.8,505.8,173.3,501.3,173.3z M482.8,87.9v61.5c0,6.8,3,13.2,7.9,17.1
				c3.3,2.5,6.9,3.8,10.6,3.8c3.8,0,7.4-1.3,10.6-3.8c5-3.8,7.9-10.2,7.9-17.1V87.9H482.8z"/>
		</g>
		<g>
			<path fill="#86BCB8" d="M501.4,184.7c-9.1,0-16.7,5.1-18.4,11.8h36.7C518.1,189.8,510.5,184.7,501.4,184.7z"/>
		</g>
		<g opacity="0.5">
			<path fill="#FFFFFF" d="M493.4,188.7c-2.1,0-5.3,3.4-7.4,7.8h8.6C496,192.1,495.6,188.7,493.4,188.7z"/>
		</g>
		<g>
			<circle fill="#86BCB8" cx="501.4" cy="179.3" r="4.3"/>
		</g>
		<g opacity="0.5">
			<circle fill="#FFFFFF" cx="499.4" cy="179.3" r="2.3"/>
		</g>
		<g>
			<g>
				<g>
					<path fill="#F9E448" d="M477.8,68.6c-4,0-7.6,1.6-10.2,4.2L477.8,83V68.6z"/>
				</g>
				<g>
					<path fill="#F9E448" d="M492.3,83c0-4-1.6-7.6-4.2-10.2L477.8,83H492.3z"/>
				</g>
				<g>
					<path fill="#F9E448" d="M477.8,83L488,72.8c-2.6-2.6-6.2-4.2-10.2-4.2V83L477.8,83z"/>
				</g>
				<g>
					<path fill="#F9E448" d="M467.6,72.8c-2.6,2.6-4.2,6.2-4.2,10.2h14.5L467.6,72.8z"/>
				</g>
				<g>
					<path fill="#F9E448" d="M477.8,83h-14.5c0,4,1.6,7.6,4.2,10.2L477.8,83L477.8,83z"/>
				</g>
				<g>
					<path fill="#F9E448" d="M467.6,93.3c2.6,2.6,6.2,4.2,10.2,4.2V83L467.6,93.3z"/>
				</g>
				<g>
					<g>
						<path fill="#FFFFFF" d="M478.2,79.6c0,1.5-1.9,2.3-3,1.2l-8-8l0.2-0.2c2.8-2.8,6.5-4.3,10.5-4.3h0.3V79.6z M469.1,73.8
							l5.5,5.5c1.1,1.1,3,0.3,3-1.2v-7.8c0-0.8-0.7-1.3-1.4-1.3c-2.5,0.3-4.9,1.3-6.9,2.9C468.6,72.3,468.5,73.2,469.1,73.8z"/>
					</g>
					<g>
						<path fill="#FFFFFF" d="M492.6,83.4h-11.4c-1.5,0-2.3-1.9-1.2-3l8-8l0.2,0.2c2.8,2.8,4.3,6.5,4.3,10.5v0.3H492.6z M482.8,82.7
							h7.8c0.8,0,1.3-0.7,1.3-1.4c-0.3-2.6-1.3-5-2.9-6.9c-0.5-0.6-1.3-0.6-1.9-0.1l-5.5,5.5C480.5,80.8,481.3,82.7,482.8,82.7z"/>
					</g>
					<g>
						<path fill="#FFFFFF" d="M480.5,80.8c-1.1,1.1-3,0.3-3-1.2V68.2h0.3c4,0,7.7,1.5,10.5,4.3l0.2,0.2L480.5,80.8z M478.2,70.2v7.9
							c0,1.5,1.9,2.3,3,1.2l5.5-5.5c0.5-0.5,0.5-1.4-0.1-1.9c-2.1-1.6-4.5-2.7-7-3C478.8,68.9,478.2,69.5,478.2,70.2z"/>
					</g>
					<g>
						<path fill="#FFFFFF" d="M475.6,80.4c1.1,1.1,0.3,3-1.2,3H463V83c0-4,1.5-7.7,4.3-10.5l0.2-0.2L475.6,80.4z M465.1,82.7h7.9
							c1.5,0,2.3-1.9,1.2-3l-5.5-5.5c-0.5-0.5-1.4-0.5-1.9,0.1c-1.6,2-2.6,4.4-3,7C463.7,82,464.3,82.7,465.1,82.7z"/>
					</g>
					<g>
						<path fill="#FFFFFF" d="M467.6,93.7l-0.2-0.2c-2.8-2.8-4.3-6.5-4.3-10.5v-0.3h11.4c1.5,0,2.3,1.9,1.2,3L467.6,93.7z
							 M463.8,84.8c0.3,2.6,1.3,5,2.9,6.9c0.5,0.6,1.3,0.6,1.9,0.1l5.5-5.5c1.1-1.1,0.3-3-1.2-3h-7.8
							C464.3,83.4,463.7,84.1,463.8,84.8z"/>
					</g>
					<g>
						<path fill="#FFFFFF" d="M478.2,97.8h-0.3c-4,0-7.7-1.5-10.5-4.3l-0.2-0.2l8-8c1.1-1.1,3-0.3,3,1.2V97.8z M469.2,94.2
							c2,1.6,4.4,2.6,6.9,2.9c0.8,0.1,1.4-0.5,1.4-1.3V88c0-1.5-1.9-2.3-3-1.2l-5.5,5.5C468.5,92.9,468.6,93.8,469.2,94.2z"/>
					</g>
				</g>
			</g>
		</g>
		<g>
			<g>
				<path fill="#E89400" d="M477.8,98c-8.2,0-15-6.7-15-15c0-8.2,6.7-15,15-15c8.2,0,14.9,6.6,14.9,14.8h1.1
					c-0.1-8.8-7.3-16-16.1-16c-8.9,0-16.1,7.2-16.1,16.1S468.8,99,477.7,99v-1H477.8z"/>
			</g>
		</g>
		<g>
			
				<rect x="516.2" y="53.7" transform="matrix(0.9258 0.3779 -0.3779 0.9258 69.5229 -189.7523)" fill="#17AA67" width="4" height="57.1"/>
		</g>
		<g>
			<rect x="482.9" y="104.8" fill="#FFFFFF" width="37" height="4.9"/>
		</g>
		<g opacity="0.5">
			<path fill="#FFFFFF" d="M492.5,154.6h-0.2c-2.4,0-4.3-1.9-4.3-4.3V85h8.8v65.3C496.8,152.7,494.9,154.6,492.5,154.6z"/>
		</g>
	</g>
	<g>
		<path fill="#E81F4F" d="M346.9,74.5c0,4.3-2.8,4.4-6.2,4.4c-3.4,0-6.2-0.1-6.2-4.4s2.8-9.6,6.2-9.6
			C344.2,64.9,346.9,70.2,346.9,74.5z"/>
	</g>
	<g>
		<g>
			<path fill="#00ABB2" d="M361.2,34.5c0,4.7-3.6,8.5-8,8.5h-26.1c-4.4,0-8-3.8-8-8.5V30c0-4.7,3.6-8.5,8-8.5h26.1
				c4.4,0,8,3.8,8,8.5V34.5z"/>
		</g>
		<g>
			<rect x="319.2" y="30" fill="#008E8E" width="42" height="5.4"/>
		</g>
		<g>
			<path fill="#FCCC92" d="M361.2,34.7h-42c-1.1,0-2-0.9-2-2c0-1.1,0.9-2,2-2h42c1.1,0,2,0.9,2,2C363.2,33.8,362.3,34.7,361.2,34.7z
				"/>
		</g>
	</g>
	<g>
		<g>
			<g>
				<path fill="#E5005D" d="M335.8,89.4c-0.1,0-0.3-0.1-0.4-0.2l-0.9-1.1c-0.2-0.2-0.2-0.5,0.1-0.7c0.2-0.2,0.5-0.2,0.7,0.1l0.9,1.1
					c0.2,0.2,0.2,0.5-0.1,0.7C336.1,89.4,335.9,89.4,335.8,89.4z"/>
			</g>
			<g>
				<path fill="#E5005D" d="M384.8,85.4c-0.1,0-0.3-0.1-0.4-0.2l-0.9-1.1c-0.2-0.2-0.2-0.5,0.1-0.7c0.2-0.2,0.5-0.2,0.7,0.1l0.9,1.1
					c0.2,0.2,0.2,0.5-0.1,0.7C385.1,85.4,384.9,85.4,384.8,85.4z"/>
			</g>
			<g>
				<path fill="#E5005D" d="M393.8,96.4c-0.1,0-0.3-0.1-0.4-0.2l-0.9-1.1c-0.2-0.2-0.2-0.5,0.1-0.7c0.2-0.2,0.5-0.2,0.7,0.1l0.9,1.1
					c0.2,0.2,0.2,0.5-0.1,0.7C394.1,96.4,393.9,96.4,393.8,96.4z"/>
			</g>
			<g>
				<path fill="#E5005D" d="M375.8,95.4c-0.1,0-0.3-0.1-0.4-0.2l-0.9-1.1c-0.2-0.2-0.2-0.5,0.1-0.7c0.2-0.2,0.5-0.2,0.7,0.1l0.9,1.1
					c0.2,0.2,0.2,0.5-0.1,0.7C376.1,95.4,375.9,95.4,375.8,95.4z"/>
			</g>
			<g>
				<path fill="#E5005D" d="M352.8,93.4c-0.1,0-0.3-0.1-0.4-0.2l-0.9-1.1c-0.2-0.2-0.2-0.5,0.1-0.7c0.2-0.2,0.5-0.2,0.7,0.1l0.9,1.1
					c0.2,0.2,0.2,0.5-0.1,0.7C353.1,93.4,352.9,93.4,352.8,93.4z"/>
			</g>
			<g>
				<path fill="#E5005D" d="M340.8,83.4c-0.1,0-0.3-0.1-0.4-0.2l-0.9-1.1c-0.2-0.2-0.2-0.5,0.1-0.7c0.2-0.2,0.5-0.2,0.7,0.1l0.9,1.1
					c0.2,0.2,0.2,0.5-0.1,0.7C341.1,83.4,340.9,83.4,340.8,83.4z"/>
			</g>
		</g>
		<g>
			<g>
				<path fill="#F7D614" d="M398.8,82.4c-0.1,0-0.3-0.1-0.4-0.2l-0.9-1.1c-0.2-0.2-0.2-0.5,0.1-0.7s0.5-0.2,0.7,0.1l0.9,1.1
					c0.2,0.2,0.2,0.5-0.1,0.7C399.1,82.4,398.9,82.4,398.8,82.4z"/>
			</g>
			<g>
				<path fill="#F7D614" d="M396.8,89.4c-0.1,0-0.3-0.1-0.4-0.2l-0.9-1.1c-0.2-0.2-0.2-0.5,0.1-0.7c0.2-0.2,0.5-0.2,0.7,0.1l0.9,1.1
					c0.2,0.2,0.2,0.5-0.1,0.7C397.1,89.4,396.9,89.4,396.8,89.4z"/>
			</g>
			<g>
				<path fill="#F7D614" d="M383.8,95.4c-0.1,0-0.3-0.1-0.4-0.2l-0.9-1.1c-0.2-0.2-0.2-0.5,0.1-0.7c0.2-0.2,0.5-0.2,0.7,0.1l0.9,1.1
					c0.2,0.2,0.2,0.5-0.1,0.7C384.1,95.4,383.9,95.4,383.8,95.4z"/>
			</g>
			<g>
				<path fill="#F7D614" d="M377.8,88.4c-0.1,0-0.3-0.1-0.4-0.2l-0.9-1.1c-0.2-0.2-0.2-0.5,0.1-0.7c0.2-0.2,0.5-0.2,0.7,0.1l0.9,1.1
					c0.2,0.2,0.2,0.5-0.1,0.7C378.1,88.4,377.9,88.4,377.8,88.4z"/>
			</g>
			<g>
				<path fill="#F7D614" d="M346.8,88.4c-0.1,0-0.3-0.1-0.4-0.2l-0.9-1.1c-0.2-0.2-0.2-0.5,0.1-0.7c0.2-0.2,0.5-0.2,0.7,0.1l0.9,1.1
					c0.2,0.2,0.2,0.5-0.1,0.7C347.1,88.4,346.9,88.4,346.8,88.4z"/>
			</g>
			<g>
				<path fill="#F7D614" d="M335.8,82.4c-0.1,0-0.3-0.1-0.4-0.2l-0.9-1.1c-0.2-0.2-0.2-0.5,0.1-0.7c0.2-0.2,0.5-0.2,0.7,0.1l0.9,1.1
					c0.2,0.2,0.2,0.5-0.1,0.7C336.1,82.4,335.9,82.4,335.8,82.4z"/>
			</g>
			<g>
				<path fill="#F7D614" d="M328.8,96.4c-0.1,0-0.3-0.1-0.4-0.2l-0.9-1.1c-0.2-0.2-0.2-0.5,0.1-0.7c0.2-0.2,0.5-0.2,0.7,0.1l0.9,1.1
					c0.2,0.2,0.2,0.5-0.1,0.7C329.1,96.4,328.9,96.4,328.8,96.4z"/>
			</g>
			<g>
				<path fill="#F7D614" d="M349.8,97.4c-0.1,0-0.3-0.1-0.4-0.2l-0.9-1.1c-0.2-0.2-0.2-0.5,0.1-0.7c0.2-0.2,0.5-0.2,0.7,0.1l0.9,1.1
					c0.2,0.2,0.2,0.5-0.1,0.7C350.1,97.4,349.9,97.4,349.8,97.4z"/>
			</g>
		</g>
		<g>
			<g>
				<path fill="#00A6E8" d="M349.8,81.4c-0.1,0-0.3-0.1-0.4-0.2l-0.9-1.1c-0.2-0.2-0.2-0.5,0.1-0.7c0.2-0.2,0.5-0.2,0.7,0.1l0.9,1.1
					c0.2,0.2,0.2,0.5-0.1,0.7C350.1,81.4,349.9,81.4,349.8,81.4z"/>
			</g>
			<g>
				<path fill="#00A6E8" d="M392.8,83.4c-0.1,0-0.3-0.1-0.4-0.2l-0.9-1.1c-0.2-0.2-0.2-0.5,0.1-0.7c0.2-0.2,0.5-0.2,0.7,0.1l0.9,1.1
					c0.2,0.2,0.2,0.5-0.1,0.7C393.1,83.4,392.9,83.4,392.8,83.4z"/>
			</g>
			<g>
				<path fill="#00A6E8" d="M401.8,96.4c-0.1,0-0.3-0.1-0.4-0.2l-0.9-1.1c-0.2-0.2-0.2-0.5,0.1-0.7c0.2-0.2,0.5-0.2,0.7,0.1l0.9,1.1
					c0.2,0.2,0.2,0.5-0.1,0.7C402.1,96.4,401.9,96.4,401.8,96.4z"/>
			</g>
			<g>
				<path fill="#00A6E8" d="M384.8,90.4c-0.1,0-0.3-0.1-0.4-0.2l-0.9-1.1c-0.2-0.2-0.2-0.5,0.1-0.7c0.2-0.2,0.5-0.2,0.7,0.1l0.9,1.1
					c0.2,0.2,0.2,0.5-0.1,0.7C385.1,90.4,384.9,90.4,384.8,90.4z"/>
			</g>
			<g>
				<path fill="#00A6E8" d="M401.8,91.4c-0.1,0-0.3-0.1-0.4-0.2l-0.9-1.1c-0.2-0.2-0.2-0.5,0.1-0.7c0.2-0.2,0.5-0.2,0.7,0.1l0.9,1.1
					c0.2,0.2,0.2,0.5-0.1,0.7C402.1,91.4,401.9,91.4,401.8,91.4z"/>
			</g>
			<g>
				<path fill="#00A6E8" d="M341.8,94.4c-0.1,0-0.3-0.1-0.4-0.2l-0.9-1.1c-0.2-0.2-0.2-0.5,0.1-0.7c0.2-0.2,0.5-0.2,0.7,0.1l0.9,1.1
					c0.2,0.2,0.2,0.5-0.1,0.7C342.1,94.4,341.9,94.4,341.8,94.4z"/>
			</g>
			<g>
				<path fill="#00A6E8" d="M329.8,91.4c-0.1,0-0.3-0.1-0.4-0.2l-0.9-1.1c-0.2-0.2-0.2-0.5,0.1-0.7c0.2-0.2,0.5-0.2,0.7,0.1l0.9,1.1
					c0.2,0.2,0.2,0.5-0.1,0.7C330.1,91.4,329.9,91.4,329.8,91.4z"/>
			</g>
		</g>
	</g>
	<g>
		<rect x="-0.5" y="196.5" fill="#13303D" width="612" height="15.7"/>
	</g>
</g>
<g>
	<polygon fill="#E5E5E4" points="352.5,196.7 213.6,196.7 223,161.9 361.8,161.9 	"/>
	<polygon fill="#B3B3B3" points="370.7,196.7 361.8,161.9 352.5,196.7 	"/>
	<g>
		<path fill="#231F20" d="M244.7,173.4c0.5,0.2,0.9,0.6,1.2,1c0.2,0.4,0.3,0.8,0.4,1.2c0.1,0.4,0.1,1-0.1,1.5c-0.2,0.7-0.5,1.4-1,2
			c-0.5,0.7-1.2,1.1-2,1.4c0.6,0.3,0.9,0.7,1.1,1.1c0.2,0.5,0.1,1.2-0.2,2.3l-0.2,1c-0.2,0.7-0.3,1.1-0.2,1.3c0,0.4,0.2,0.6,0.4,0.8
			l-0.1,0.4h-3.3c0-0.3-0.1-0.6,0-0.8c0-0.4,0.1-0.8,0.2-1.2l0.3-1.3c0.2-0.9,0.2-1.5-0.1-1.8c-0.2-0.3-0.8-0.5-1.6-0.5h-3l-1.4,5.7
			h-3l3.6-14.5h6.9C243.5,173,244.3,173.2,244.7,173.4z M238,175.5l-1,3.9h3.3c0.6,0,1.1-0.1,1.5-0.2c0.7-0.3,1.1-0.8,1.3-1.6
			c0.2-0.9,0.1-1.5-0.4-1.8c-0.3-0.2-0.7-0.3-1.3-0.3L238,175.5z"/>
		<path fill="#231F20" d="M260.2,175.6h-7.7l-0.8,3.1h7l-0.6,2.5h-7l-0.9,3.7h8l-0.6,2.6h-11l3.6-14.5h10.6l-0.6,2.6H260.2z"/>
		<path fill="#231F20" d="M263.2,183c-0.1,0.7,0,1.2,0.2,1.5c0.4,0.6,1.2,0.9,2.4,0.9c0.7,0,1.3-0.1,1.8-0.2c1-0.3,1.5-0.9,1.7-1.7
			c0.1-0.5,0-0.8-0.3-1.1c-0.3-0.3-1-0.5-1.8-0.7l-1.5-0.3c-1.4-0.3-2.4-0.7-2.9-1.1c-0.8-0.7-1.1-1.7-0.7-3.1
			c0.3-1.3,1.1-2.4,2.2-3.2c1.2-0.9,2.7-1.3,4.5-1.3c1.5,0,2.8,0.4,3.7,1.2s1.2,2,0.8,3.5h-2.9c0.1-0.9,0-1.5-0.7-1.9
			c-0.5-0.2-1-0.4-1.7-0.4c-0.8,0-1.4,0.2-2,0.5c-0.6,0.3-0.9,0.8-1,1.3c-0.1,0.5,0,0.9,0.4,1.2c0.3,0.2,0.8,0.4,1.8,0.6l2.4,0.6
			c1,0.3,1.8,0.6,2.2,1.1c0.7,0.7,0.9,1.7,0.6,3s-1.1,2.4-2.3,3.3c-1.2,0.9-2.8,1.3-4.6,1.3c-1.9,0-3.3-0.4-4.2-1.3
			c-0.9-0.9-1.1-2-0.7-3.6h2.8L263.2,183z"/>
		<path fill="#231F20" d="M287,175.6h-7.7l-0.8,3.1h7l-0.6,2.5h-7l-0.9,3.7h8l-0.6,2.6h-11l3.6-14.5h10.6l-0.6,2.6H287z"/>
		<path fill="#231F20" d="M299.5,173.4c0.5,0.2,0.9,0.6,1.2,1c0.2,0.4,0.3,0.8,0.4,1.2c0.1,0.4,0.1,1-0.1,1.5c-0.2,0.7-0.5,1.4-1,2
			c-0.5,0.7-1.2,1.1-2,1.4c0.6,0.3,0.9,0.7,1.1,1.1c0.2,0.5,0.1,1.2-0.2,2.3l-0.2,1c-0.2,0.7-0.3,1.1-0.2,1.3c0,0.4,0.2,0.6,0.4,0.8
			l-0.1,0.4h-3.4c0-0.3-0.1-0.6,0-0.8c0-0.4,0.1-0.8,0.2-1.2l0.3-1.3c0.2-0.9,0.2-1.5-0.1-1.8c-0.2-0.3-0.8-0.5-1.6-0.5h-3l-1.4,5.7
			h-3l3.6-14.5h6.9C298.3,173,299.1,173.2,299.5,173.4z M292.8,175.5l-1,3.9h3.3c0.6,0,1.1-0.1,1.5-0.2c0.7-0.3,1.1-0.8,1.3-1.6
			c0.2-0.9,0.1-1.5-0.4-1.8c-0.3-0.2-0.7-0.3-1.3-0.3L292.8,175.5z"/>
		<path fill="#231F20" d="M313,173h3.1l-8.5,14.5h-2.9l-1.3-14.5h3.2l0.4,11L313,173z"/>
		<path fill="#231F20" d="M328.1,175.6h-7.7l-0.8,3.1h7l-0.6,2.5h-7l-0.9,3.7h8l-0.6,2.6h-11L318,173h10.6l-0.6,2.6H328.1z"/>
		<path fill="#231F20" d="M339.9,173.3c0.9,0.3,1.6,0.9,2.1,1.8c0.3,0.7,0.4,1.5,0.4,2.3s-0.1,1.6-0.3,2.4c-0.5,1.9-1.3,3.6-2.4,4.9
			c-1.4,1.8-3.4,2.7-5.6,2.7h-6.2l3.6-14.4h6.2C338.5,173,339.3,173.1,339.9,173.3z M333.7,175.5l-2.4,9.5h2.8
			c1.4,0,2.6-0.7,3.5-2.1c0.5-0.8,0.9-1.7,1.2-2.8c0.4-1.5,0.4-2.6,0.1-3.4s-1.1-1.2-2.5-1.2H333.7z"/>
	</g>
	<path fill="#231F20" d="M348.2,181.9L348.2,181.9c-1,0-1.8-0.8-1.8-1.8l0,0c0-1,0.8-1.8,1.8-1.8l0,0c1,0,1.8,0.8,1.8,1.8l0,0
		C350,181.2,349.2,181.9,348.2,181.9z"/>
	<path fill="#231F20" d="M226.8,181.9L226.8,181.9c-1,0-1.8-0.8-1.8-1.8l0,0c0-1,0.8-1.8,1.8-1.8l0,0c1,0,1.8,0.8,1.8,1.8l0,0
		C228.5,181.2,227.7,181.9,226.8,181.9z"/>
</g>
</svg>