<?xml version="1.0" encoding="utf-8"?>
<!-- Generator: Adobe Illustrator 18.1.1, SVG Export Plug-In . SVG Version: 6.00 Build 0)  -->
<!DOCTYPE svg PUBLIC "-//W3C//DTD SVG 1.1//EN" "http://www.w3.org/Graphics/SVG/1.1/DTD/svg11.dtd">
<svg version="1.1" id="Layer_1" xmlns="http://www.w3.org/2000/svg" xmlns:xlink="http://www.w3.org/1999/xlink" x="0px" y="0px"
	 viewBox="0 0 612 612" enable-background="new 0 0 612 612" xml:space="preserve">
<pattern  y="612" width="1.5" height="0.4" patternUnits="userSpaceOnUse" id="SVGID_1_" viewBox="0 -0.4 1.5 0.4" overflow="visible">
	<g>
		<polygon fill="none" points="0,0 1.5,0 1.5,-0.4 0,-0.4 		"/>
		<g>
			<polygon fill="none" points="0,-0.4 1.5,-0.4 1.5,0 0,0 			"/>
			<g>
				<polygon fill="none" points="0,0 1.5,0 1.5,-0.4 0,-0.4 				"/>
				<polygon fill="#FFFEF9" points="0,-0.4 0,0 1.5,0 1.5,-0.4 				"/>
			</g>
		</g>
	</g>
</pattern>
<g>
	<g>
		<g>
			<path fill="#316ABC" d="M490.7,129.7c0-9.3-7.7-16.8-17-16.8s-17,7.5-17,16.8v131h34V129.7z"/>
			<rect x="466.4" y="81" fill="#252348" width="14.8" height="34"/>
			<rect x="468.9" y="81" opacity="0.2" fill="#FFFFFF" enable-background="new    " width="3.8" height="34"/>
			<rect x="456.7" y="149" fill="#FFFEF9" width="34" height="9"/>
			<g>
				<circle fill="#316ABC" cx="473.8" cy="152.6" r="12"/>
				<g>
					<g>
						<circle fill="none" stroke="#FFFEF9" stroke-width="0.5" stroke-miterlimit="10" cx="473.8" cy="152.6" r="9.9"/>
					</g>
					<circle fill="#FFFEF9" cx="473.7" cy="152.6" r="8.7"/>
				</g>
			</g>
			<path opacity="0.2" fill="#FFFFFF" enable-background="new    " d="M471.5,260.7h-8.1v-131c0-2.2,1.8-4,4-4l0,0c2.2,0,4,1.8,4,4
				v131H471.5z"/>
		</g>
		<g>
			<path fill="#666666" d="M422.5,109c-0.1,0-0.2,0-0.2,0c-0.1,0-0.2,0-0.2,0H402c-0.8,0-1.5,0.7-1.5,1.5s0.7,1.5,1.5,1.5h19
				c-0.8,63-54.9,114.8-121.3,114.8S179.3,175,178.4,112H197c0.8,0,1.5-0.7,1.5-1.5s-0.7-1.5-1.5-1.5h-20.1c-0.8,0-1.5,0.7-1.5,1.5
				c0,65.8,55.8,119.3,124.3,119.3S424,176.3,424,110.5C424,109.7,423.3,109,422.5,109z"/>
			<circle fill="#BEDAE5" cx="299.6" cy="108" r="104"/>
			<path fill="#C8E1E8" d="M311,4.6L196.2,119.4c1.1,10,3.6,19.5,7.3,28.5l1.3,1.3L341.3,12.7C331.9,8.6,321.7,5.8,311,4.6z"/>
			<path fill="#D8E9EF" d="M218.9,170.9L234,186L379.1,40.9c-4.6-5.5-9.8-10.4-15.4-14.9L218.9,170.9z"/>
			<path fill="#C8E1E8" d="M239.4,192.8c11.3,8.1,24.3,13.9,38.4,16.9L401.3,86.2c-3-14.1-8.8-27.1-16.9-38.4L239.4,192.8z"/>
			<path fill="#999999" d="M299.6,216c-59.6,0-108-48.4-108-108S240,0,299.6,0s108,48.4,108,108S359.2,216,299.6,216z M299.6,8
				c-55.1,0-100,44.9-100,100s44.9,100,100,100s100-44.9,100-100S354.7,8,299.6,8z"/>
			<path fill="none" stroke="#8DC63F" stroke-width="3" stroke-linecap="round" stroke-linejoin="round" stroke-miterlimit="10" d="
				M411.6,110.5"/>
			<path fill="none" stroke="#8DC63F" stroke-width="3" stroke-linecap="round" stroke-linejoin="round" stroke-miterlimit="10" d="
				M422.4,110.5"/>
			<path fill="#F2F2F2" d="M227.4,35.8C247,16.2,271.9,5.4,296.9,3.3C241.3,4.7,196.4,49.7,195,105.2
				C197,80.3,207.8,55.4,227.4,35.8z"/>
			<path fill="#666666" d="M371.8,180.2c-19.6,19.6-44.5,30.4-69.5,32.5c55.6-1.4,100.5-46.4,101.9-101.9
				C402.2,135.7,391.4,160.6,371.8,180.2z"/>
		</g>
		<g>
			<rect x="106.7" y="126.8" fill="#8D16C4" width="13.8" height="13.9"/>
			<rect x="108.5" y="126.8" opacity="0.2" fill="#FFFFFF" enable-background="new    " width="4.2" height="13.9"/>
			<path fill="#EA346C" d="M140.1,260.7H87.2V144.3c0-5.7,4.6-10.2,10.2-10.2h32.4c5.7,0,10.2,4.6,10.2,10.2v116.4H140.1z"/>
			<rect x="103" y="120.4" fill="#8D16C4" width="21.2" height="4"/>
			<rect x="100.6" y="164.1" fill="#FFFEF9" width="26.8" height="34.5"/>
			<rect x="97.8" y="161.3" fill="none" stroke="#FFFFFF" stroke-width="0.5" stroke-miterlimit="10" width="32.3" height="40.5"/>
			<rect x="106.7" y="124.4" fill="#6F04A8" width="13.8" height="2.4"/>
			<path opacity="0.2" fill="#FFFFFF" enable-background="new    " d="M113.6,260.7H95.5V148.4c0-2.5,2-4.5,4.5-4.5h9.1
				c2.5,0,4.5,2,4.5,4.5V260.7z"/>
			<rect x="105.7" y="120.4" opacity="0.2" fill="#FFFFFF" enable-background="new    " width="7" height="4"/>
		</g>
		<g>
			<path fill="#252348" d="M550.9,260.7h-85.2l-0.1-34.9c0-3.4,2.8-6.2,6.2-6.2h72.9c3.4,0,6.2,2.8,6.2,6.2V260.7z"/>
			<path fill="#17AA67" d="M478.2,210.7h60.3c2.1,0,3.7,1.7,3.7,3.7v5.2h-67.8v-5.2C474.4,212.4,476.1,210.7,478.2,210.7z"/>
			<rect x="482" y="210.7" opacity="0.2" fill="#FFFFFF" enable-background="new    " width="18.5" height="8.9"/>
			<rect x="477.7" y="229.4" fill="none" stroke="#FFFEF9" stroke-width="0.5" stroke-miterlimit="10" width="61.6" height="21"/>
			<rect x="479.7" y="232.1" fill="#FFFFFF" width="57.3" height="15.3"/>
			<path opacity="0.2" fill="#FFFFFF" enable-background="new    " d="M500.5,260.7h-26.1v-31.3c0-2.9,2.3-5.2,5.2-5.2h15.6
				c2.9,0,5.2,2.3,5.2,5.2L500.5,260.7L500.5,260.7z"/>
		</g>
		<polygon fill="#E5E5E4" points="360.5,260.7 221.6,260.7 231,225.9 369.8,225.9 		"/>
		<polygon fill="#B3B3B3" points="378.7,260.7 369.8,225.9 360.5,260.7 		"/>
		<g>
			<path fill="#231F20" d="M252.7,237.4c0.5,0.2,0.9,0.6,1.2,1c0.2,0.4,0.3,0.8,0.4,1.2c0.1,0.4,0.1,1-0.1,1.5c-0.2,0.7-0.5,1.4-1,2
				c-0.5,0.7-1.2,1.1-2,1.4c0.6,0.3,0.9,0.7,1.1,1.1c0.2,0.5,0.1,1.2-0.2,2.3l-0.2,1c-0.2,0.7-0.3,1.1-0.2,1.3
				c0,0.4,0.2,0.6,0.4,0.8l-0.1,0.4h-3.3c0-0.3-0.1-0.6,0-0.8c0-0.4,0.1-0.8,0.2-1.2l0.3-1.3c0.2-0.9,0.2-1.5-0.1-1.8
				c-0.2-0.3-0.8-0.5-1.6-0.5h-3l-1.4,5.7h-3l3.6-14.5h6.9C251.5,237,252.3,237.2,252.7,237.4z M246,239.5l-1,3.9h3.3
				c0.6,0,1.1-0.1,1.5-0.2c0.7-0.3,1.1-0.8,1.3-1.6c0.2-0.9,0.1-1.5-0.4-1.8c-0.3-0.2-0.7-0.3-1.3-0.3H246z"/>
			<path fill="#231F20" d="M268.2,239.6h-7.7l-0.8,3.1h7l-0.6,2.5h-7l-0.9,3.7h8l-0.6,2.6h-11l3.6-14.5h10.6L268.2,239.6
				L268.2,239.6L268.2,239.6z"/>
			<path fill="#231F20" d="M271.2,247c-0.1,0.7,0,1.2,0.2,1.5c0.4,0.6,1.2,0.9,2.4,0.9c0.7,0,1.3-0.1,1.8-0.2c1-0.3,1.5-0.9,1.7-1.7
				c0.1-0.5,0-0.8-0.3-1.1c-0.3-0.3-1-0.5-1.8-0.7l-1.5-0.3c-1.4-0.3-2.4-0.7-2.9-1.1c-0.8-0.7-1.1-1.7-0.7-3.1
				c0.3-1.3,1.1-2.4,2.2-3.2c1.2-0.9,2.7-1.3,4.5-1.3c1.5,0,2.8,0.4,3.7,1.2c0.9,0.8,1.2,2,0.8,3.5h-2.9c0.1-0.9,0-1.5-0.7-1.9
				c-0.5-0.2-1-0.4-1.7-0.4c-0.8,0-1.4,0.2-2,0.5s-0.9,0.8-1,1.3s0,0.9,0.4,1.2c0.3,0.2,0.8,0.4,1.8,0.6l2.4,0.6
				c1,0.3,1.8,0.6,2.2,1.1c0.7,0.7,0.9,1.7,0.6,3s-1.1,2.4-2.3,3.3c-1.2,0.9-2.8,1.3-4.6,1.3c-1.9,0-3.3-0.4-4.2-1.3
				c-0.9-0.9-1.1-2-0.7-3.6h2.8L271.2,247z"/>
			<path fill="#231F20" d="M295,239.6h-7.7l-0.8,3.1h7l-0.6,2.5h-7l-0.9,3.7h8l-0.6,2.6h-11L285,237h10.6L295,239.6L295,239.6
				L295,239.6z"/>
			<path fill="#231F20" d="M307.5,237.4c0.5,0.2,0.9,0.6,1.2,1c0.2,0.4,0.3,0.8,0.4,1.2c0.1,0.4,0.1,1-0.1,1.5c-0.2,0.7-0.5,1.4-1,2
				c-0.5,0.7-1.2,1.1-2,1.4c0.6,0.3,0.9,0.7,1.1,1.1c0.2,0.5,0.1,1.2-0.2,2.3l-0.2,1c-0.2,0.7-0.3,1.1-0.2,1.3
				c0,0.4,0.2,0.6,0.4,0.8l-0.1,0.4h-3.4c0-0.3-0.1-0.6,0-0.8c0-0.4,0.1-0.8,0.2-1.2l0.3-1.3c0.2-0.9,0.2-1.5-0.1-1.8
				c-0.2-0.3-0.8-0.5-1.6-0.5h-3l-1.4,5.7h-3l3.6-14.5h6.9C306.3,237,307.1,237.2,307.5,237.4z M300.8,239.5l-1,3.9h3.3
				c0.6,0,1.1-0.1,1.5-0.2c0.7-0.3,1.1-0.8,1.3-1.6c0.2-0.9,0.1-1.5-0.4-1.8c-0.3-0.2-0.7-0.3-1.3-0.3H300.8z"/>
			<path fill="#231F20" d="M321,237h3.1l-8.5,14.5h-2.9l-1.3-14.5h3.2l0.4,11L321,237z"/>
			<path fill="#231F20" d="M336.1,239.6h-7.7l-0.8,3.1h7l-0.6,2.5h-7l-0.9,3.7h8l-0.6,2.6h-11L326,237h10.6l-0.6,2.6H336.1z"/>
			<path fill="#231F20" d="M347.9,237.3c0.9,0.3,1.6,0.9,2.1,1.8c0.3,0.7,0.4,1.5,0.4,2.3s-0.1,1.6-0.3,2.4
				c-0.5,1.9-1.3,3.6-2.4,4.9c-1.4,1.8-3.4,2.7-5.6,2.7h-6.2l3.6-14.4h6.2C346.5,237,347.3,237.1,347.9,237.3z M341.7,239.5
				l-2.4,9.5h2.8c1.4,0,2.6-0.7,3.5-2.1c0.5-0.8,0.9-1.7,1.2-2.8c0.4-1.5,0.4-2.6,0.1-3.4s-1.1-1.2-2.5-1.2H341.7z"/>
		</g>
		<g>
			<g>
				<path fill="#316ABC" d="M165.4,178h-41.2v-0.3c0-8.5,6.9-15.4,15.4-15.4H150c8.5,0,15.4,6.9,15.4,15.4V178z"/>
				<rect x="138.8" y="153.9" fill="#316ABC" width="12" height="8.4"/>
				<rect x="149.2" y="153.9" fill="#316ABC" width="5.1" height="2.1"/>
			</g>
			<rect x="140.9" y="153.9" opacity="0.2" fill="#FFFFFF" enable-background="new    " width="3.9" height="8.4"/>
			<rect x="124.2" y="178" fill="#85B2E8" width="41.2" height="83.3"/>
			
				<pattern  id="SVGID_2_" xlink:href="#SVGID_1_" patternTransform="matrix(9.803922e-02 0 0 9.803922e-02 -14225.7256 1606.3367)">
			</pattern>
			<rect x="124.2" y="197.1" fill="url(#SVGID_2_)" width="41.3" height="11.8"/>
			<g>
				<circle fill="#85B2E8" cx="144.5" cy="204" r="12"/>
				<g>
					<g>
						<circle fill="none" stroke="#FFFEF9" stroke-width="0.5" stroke-miterlimit="10" cx="144.5" cy="204" r="9.9"/>
					</g>
					<circle fill="#FFFEF9" cx="144.4" cy="204" r="8.7"/>
				</g>
			</g>
			<path opacity="0.2" fill="#FFFFFF" enable-background="new    " d="M142.1,261.3h-11.7v-86c0-2.8,2.3-5.1,5.1-5.1h1.4
				c2.8,0,5.1,2.3,5.1,5.1L142.1,261.3L142.1,261.3z"/>
		</g>
		<rect y="260.7" fill="#784F41" width="612" height="15.7"/>
		<path fill="#231F20" d="M356.2,245.9L356.2,245.9c-1,0-1.8-0.8-1.8-1.8l0,0c0-1,0.8-1.8,1.8-1.8l0,0c1,0,1.8,0.8,1.8,1.8l0,0
			C358,245.2,357.2,245.9,356.2,245.9z"/>
		<path fill="#231F20" d="M234.8,245.9L234.8,245.9c-1,0-1.8-0.8-1.8-1.8l0,0c0-1,0.8-1.8,1.8-1.8l0,0c1,0,1.8,0.8,1.8,1.8l0,0
			C236.5,245.2,235.7,245.9,234.8,245.9z"/>
		<g>
			<path fill="#EA346C" d="M450.5,236.8c0,13.2-10.7,23.9-28.8,23.9S389,250,389,236.8s14.7-23.9,32.8-23.9S450.5,223.6,450.5,236.8
				z"/>
			<circle fill="#D32262" cx="410.4" cy="219.1" r="1.4"/>
			<circle fill="#D32262" cx="413.4" cy="250.1" r="1.4"/>
			<circle fill="#D32262" cx="427.1" cy="230.3" r="3.1"/>
			<circle fill="#D32262" cx="419.6" cy="241.7" r="1.6"/>
			<circle fill="#D32262" cx="427.6" cy="256.7" r="1.6"/>
			<circle fill="#D32262" cx="438.4" cy="236.6" r="0.9"/>
			<circle fill="#D32262" cx="421.4" cy="255.6" r="0.9"/>
			<circle fill="#D32262" cx="432.6" cy="248.1" r="2.3"/>
			<circle fill="#D32262" cx="404.6" cy="250.1" r="2.3"/>
			<circle fill="#D32262" cx="431.9" cy="221.1" r="0.7"/>
			<circle fill="#D32262" cx="397.9" cy="234.6" r="1.1"/>
		</g>
	</g>
	<g>
		<path fill="#252348" d="M59.1,258L59.1,258c0.1,1.5,1.3,2.7,2.8,2.7h112.4l-0.7-15.5L61.7,255C60.1,255.1,59,256.4,59.1,258z"/>
		<path fill="#736357" d="M203.1,260.7h-29.5v-15.6l21.6-9.5c6.3-2.8,13.4,1.9,13.4,8.8v10.8C208.6,258.3,206.2,260.7,203.1,260.7z"
			/>
		<polygon fill="#C69C6D" points="151.3,260.7 174.3,260.6 173.6,245.1 150.7,247.1 		"/>
		<path opacity="0.2" fill="#FFFFFF" enable-background="new    " d="M59.1,258L59.1,258c0,0.3,1.2,0.6,2.7,0.5l112.1-6.4l-0.2-3.5
			l-112,8.7C60.2,257.3,59,257.6,59.1,258z"/>
		<polygon fill="#F2E4D6" points="150.9,253.3 173.9,252 173.7,248.5 150.8,250.2 		"/>
	</g>
</g>
</svg>
